<mxfile host="65bd71144e">
    <diagram id="fm2uet7lAsO5M421QCyx" name="Page-1">
        <mxGraphModel dx="344" dy="387" grid="1" gridSize="10" guides="1" tooltips="1" connect="1" arrows="1" fold="1" page="1" pageScale="0.25" pageWidth="230" pageHeight="150" math="0" shadow="0">
            <root>
                <mxCell id="0"/>
                <mxCell id="1" parent="0"/>
                <mxCell id="41" value="" style="rounded=0;whiteSpace=wrap;html=1;fillColor=light-dark(#FFFFFF,#FFFFFF);" parent="1" vertex="1">
                    <mxGeometry width="230" height="120" as="geometry"/>
                </mxCell>
                <mxCell id="6" value="Sancion" style="shape=table;startSize=30;container=1;collapsible=1;childLayout=tableLayout;fixedRows=1;rowLines=0;fontStyle=1;align=center;resizeLast=1;strokeColor=light-dark(#000000,#000000);swimlaneFillColor=light-dark(transparent,#FFFFFF);fontColor=light-dark(#000000,#000000);fillColor=light-dark(#FFFFFF,#FFFFFF);fillStyle=solid;html=1;" parent="1" vertex="1">
                    <mxGeometry width="230" height="180" as="geometry">
                        <mxRectangle width="160" height="30" as="alternateBounds"/>
                    </mxGeometry>
                </mxCell>
                <mxCell id="7" value="" style="shape=tableRow;horizontal=0;startSize=0;swimlaneHead=0;swimlaneBody=0;fillColor=none;collapsible=0;dropTarget=0;points=[[0,0.5],[1,0.5]];portConstraint=eastwest;top=0;left=0;right=0;bottom=1;strokeColor=light-dark(#000000,#000000);swimlaneFillColor=light-dark(transparent,#FFFFFF);fontColor=light-dark(#000000,#000000);" parent="6" vertex="1">
                    <mxGeometry y="30" width="230" height="30" as="geometry"/>
                </mxCell>
                <mxCell id="8" value="PK" style="shape=partialRectangle;connectable=0;fillColor=none;top=0;left=0;bottom=0;right=0;fontStyle=1;overflow=hidden;whiteSpace=wrap;html=1;strokeColor=light-dark(#000000,#000000);swimlaneFillColor=light-dark(transparent,#FFFFFF);fontColor=light-dark(#000000,#000000);" parent="7" vertex="1">
                    <mxGeometry width="30" height="30" as="geometry">
                        <mxRectangle width="30" height="30" as="alternateBounds"/>
                    </mxGeometry>
                </mxCell>
                <mxCell id="9" value="id (long, autoincrementable)" style="shape=partialRectangle;connectable=0;fillColor=none;top=0;left=0;bottom=0;right=0;align=left;spacingLeft=6;fontStyle=5;overflow=hidden;whiteSpace=wrap;html=1;strokeColor=light-dark(#000000,#000000);swimlaneFillColor=light-dark(transparent,#FFFFFF);fontColor=light-dark(#000000,#000000);" parent="7" vertex="1">
                    <mxGeometry x="30" width="200" height="30" as="geometry">
                        <mxRectangle width="200" height="30" as="alternateBounds"/>
                    </mxGeometry>
                </mxCell>
                <mxCell id="72" style="shape=tableRow;horizontal=0;startSize=0;swimlaneHead=0;swimlaneBody=0;fillColor=none;collapsible=0;dropTarget=0;points=[[0,0.5],[1,0.5]];portConstraint=eastwest;top=0;left=0;right=0;bottom=0;strokeColor=light-dark(#000000,#000000);swimlaneFillColor=light-dark(transparent,#FFFFFF);fontColor=light-dark(#000000,#000000);" vertex="1" parent="6">
                    <mxGeometry y="60" width="230" height="30" as="geometry"/>
                </mxCell>
                <mxCell id="73" style="shape=partialRectangle;connectable=0;fillColor=none;top=0;left=0;bottom=0;right=0;editable=1;overflow=hidden;whiteSpace=wrap;html=1;strokeColor=light-dark(#000000,#000000);swimlaneFillColor=light-dark(transparent,#FFFFFF);fontColor=light-dark(#000000,#000000);" vertex="1" parent="72">
                    <mxGeometry width="30" height="30" as="geometry">
                        <mxRectangle width="30" height="30" as="alternateBounds"/>
                    </mxGeometry>
                </mxCell>
                <mxCell id="74" value="CodigoUnico (FK, not null)" style="shape=partialRectangle;connectable=0;fillColor=none;top=0;left=0;bottom=0;right=0;align=left;spacingLeft=6;overflow=hidden;whiteSpace=wrap;strokeColor=light-dark(#000000,#000000);swimlaneFillColor=light-dark(transparent,#FFFFFF);fontColor=light-dark(#000000,#000000);labelBackgroundColor=none;fontStyle=0;fontSize=12;" vertex="1" parent="72">
                    <mxGeometry x="30" width="200" height="30" as="geometry">
                        <mxRectangle width="200" height="30" as="alternateBounds"/>
                    </mxGeometry>
                </mxCell>
                <mxCell id="25" style="shape=tableRow;horizontal=0;startSize=0;swimlaneHead=0;swimlaneBody=0;fillColor=none;collapsible=0;dropTarget=0;points=[[0,0.5],[1,0.5]];portConstraint=eastwest;top=0;left=0;right=0;bottom=0;strokeColor=light-dark(#000000,#000000);swimlaneFillColor=light-dark(transparent,#FFFFFF);fontColor=light-dark(#000000,#000000);" parent="6" vertex="1">
                    <mxGeometry y="90" width="230" height="30" as="geometry"/>
                </mxCell>
                <mxCell id="26" style="shape=partialRectangle;connectable=0;fillColor=none;top=0;left=0;bottom=0;right=0;editable=1;overflow=hidden;whiteSpace=wrap;html=1;strokeColor=light-dark(#000000,#000000);swimlaneFillColor=light-dark(transparent,#FFFFFF);fontColor=light-dark(#000000,#000000);" parent="25" vertex="1">
                    <mxGeometry width="30" height="30" as="geometry">
                        <mxRectangle width="30" height="30" as="alternateBounds"/>
                    </mxGeometry>
                </mxCell>
                <mxCell id="27" value="Tipo (varchar, 2, not null)" style="shape=partialRectangle;connectable=0;fillColor=none;top=0;left=0;bottom=0;right=0;align=left;spacingLeft=6;overflow=hidden;whiteSpace=wrap;strokeColor=light-dark(#000000,#000000);swimlaneFillColor=light-dark(transparent,#FFFFFF);fontColor=light-dark(#000000,#000000);labelBackgroundColor=none;fontStyle=0;fontSize=12;" parent="25" vertex="1">
                    <mxGeometry x="30" width="200" height="30" as="geometry">
                        <mxRectangle width="200" height="30" as="alternateBounds"/>
                    </mxGeometry>
                </mxCell>
                <mxCell id="66" style="shape=tableRow;horizontal=0;startSize=0;swimlaneHead=0;swimlaneBody=0;fillColor=none;collapsible=0;dropTarget=0;points=[[0,0.5],[1,0.5]];portConstraint=eastwest;top=0;left=0;right=0;bottom=0;strokeColor=light-dark(#000000,#000000);swimlaneFillColor=light-dark(transparent,#FFFFFF);fontColor=light-dark(#000000,#000000);" parent="6" vertex="1">
                    <mxGeometry y="120" width="230" height="30" as="geometry"/>
                </mxCell>
                <mxCell id="67" style="shape=partialRectangle;connectable=0;fillColor=none;top=0;left=0;bottom=0;right=0;editable=1;overflow=hidden;whiteSpace=wrap;html=1;strokeColor=light-dark(#000000,#000000);swimlaneFillColor=light-dark(transparent,#FFFFFF);fontColor=light-dark(#000000,#000000);" parent="66" vertex="1">
                    <mxGeometry width="30" height="30" as="geometry">
                        <mxRectangle width="30" height="30" as="alternateBounds"/>
                    </mxGeometry>
                </mxCell>
                <mxCell id="68" value="IdEquipo (FK, not null)" style="shape=partialRectangle;connectable=0;fillColor=none;top=0;left=0;bottom=0;right=0;align=left;spacingLeft=6;overflow=hidden;whiteSpace=wrap;strokeColor=light-dark(#000000,#000000);swimlaneFillColor=light-dark(transparent,#FFFFFF);fontColor=light-dark(#000000,#000000);labelBackgroundColor=none;fontStyle=0;fontSize=12;" parent="66" vertex="1">
                    <mxGeometry x="30" width="200" height="30" as="geometry">
                        <mxRectangle width="200" height="30" as="alternateBounds"/>
                    </mxGeometry>
                </mxCell>
                <mxCell id="69" style="shape=tableRow;horizontal=0;startSize=0;swimlaneHead=0;swimlaneBody=0;fillColor=none;collapsible=0;dropTarget=0;points=[[0,0.5],[1,0.5]];portConstraint=eastwest;top=0;left=0;right=0;bottom=0;strokeColor=light-dark(#000000,#000000);swimlaneFillColor=light-dark(transparent,#FFFFFF);fontColor=light-dark(#000000,#000000);" vertex="1" parent="6">
                    <mxGeometry y="150" width="230" height="30" as="geometry"/>
                </mxCell>
                <mxCell id="70" style="shape=partialRectangle;connectable=0;fillColor=none;top=0;left=0;bottom=0;right=0;editable=1;overflow=hidden;whiteSpace=wrap;html=1;strokeColor=light-dark(#000000,#000000);swimlaneFillColor=light-dark(transparent,#FFFFFF);fontColor=light-dark(#000000,#000000);" vertex="1" parent="69">
                    <mxGeometry width="30" height="30" as="geometry">
                        <mxRectangle width="30" height="30" as="alternateBounds"/>
                    </mxGeometry>
                </mxCell>
                <mxCell id="71" value="Marcador (varchar, 5)" style="shape=partialRectangle;connectable=0;fillColor=none;top=0;left=0;bottom=0;right=0;align=left;spacingLeft=6;overflow=hidden;whiteSpace=wrap;strokeColor=light-dark(#000000,#000000);swimlaneFillColor=light-dark(transparent,#FFFFFF);fontColor=light-dark(#000000,#000000);labelBackgroundColor=none;fontStyle=0;fontSize=12;" vertex="1" parent="69">
                    <mxGeometry x="30" width="200" height="30" as="geometry">
                        <mxRectangle width="200" height="30" as="alternateBounds"/>
                    </mxGeometry>
                </mxCell>
            </root>
        </mxGraphModel>
    </diagram>
</mxfile>